<?xml version="1.0" standalone="no"?>
<svg xmlns:xlink="http://www.w3.org/1999/xlink" id="wave" style="transform:rotate(0deg); transition: 0.3s" viewBox="0 0 1440 170" version="1.1" xmlns="http://www.w3.org/2000/svg"><defs><linearGradient id="sw-gradient-0" x1="0" x2="0" y1="1" y2="0"><stop stop-color="rgba(15, 15, 15, 1)" offset="0%"/><stop stop-color="rgba(15, 15, 15, 1)" offset="100%"/></linearGradient></defs><path style="transform:translate(0, 0px); opacity:1" fill="url(#sw-gradient-0)" d="M0,51L60,65.2C120,79,240,108,360,107.7C480,108,600,79,720,82.2C840,85,960,119,1080,110.5C1200,102,1320,51,1440,34C1560,17,1680,34,1800,53.8C1920,74,2040,96,2160,104.8C2280,113,2400,108,2520,102C2640,96,2760,91,2880,87.8C3000,85,3120,85,3240,73.7C3360,62,3480,40,3600,28.3C3720,17,3840,17,3960,31.2C4080,45,4200,74,4320,82.2C4440,91,4560,79,4680,65.2C4800,51,4920,34,5040,36.8C5160,40,5280,62,5400,59.5C5520,57,5640,28,5760,22.7C5880,17,6000,34,6120,45.3C6240,57,6360,62,6480,56.7C6600,51,6720,34,6840,31.2C6960,28,7080,40,7200,62.3C7320,85,7440,119,7560,124.7C7680,130,7800,108,7920,85C8040,62,8160,40,8280,31.2C8400,23,8520,28,8580,31.2L8640,34L8640,170L8580,170C8520,170,8400,170,8280,170C8160,170,8040,170,7920,170C7800,170,7680,170,7560,170C7440,170,7320,170,7200,170C7080,170,6960,170,6840,170C6720,170,6600,170,6480,170C6360,170,6240,170,6120,170C6000,170,5880,170,5760,170C5640,170,5520,170,5400,170C5280,170,5160,170,5040,170C4920,170,4800,170,4680,170C4560,170,4440,170,4320,170C4200,170,4080,170,3960,170C3840,170,3720,170,3600,170C3480,170,3360,170,3240,170C3120,170,3000,170,2880,170C2760,170,2640,170,2520,170C2400,170,2280,170,2160,170C2040,170,1920,170,1800,170C1680,170,1560,170,1440,170C1320,170,1200,170,1080,170C960,170,840,170,720,170C600,170,480,170,360,170C240,170,120,170,60,170L0,170Z"/></svg>