<?xml version="1.0" standalone="no"?>
<svg xmlns:xlink="http://www.w3.org/1999/xlink" id="wave" style="transform:rotate(0deg); transition: 0.3s" viewBox="0 0 1440 170" version="1.1" xmlns="http://www.w3.org/2000/svg"><defs><linearGradient id="sw-gradient-0" x1="0" x2="0" y1="1" y2="0"><stop stop-color="rgba(15, 15, 15, 1)" offset="0%"/><stop stop-color="rgba(15, 15, 15, 1)" offset="100%"/></linearGradient></defs><path style="transform:translate(0, 0px); opacity:1" fill="url(#sw-gradient-0)" d="M0,119L80,99.2C160,79,320,40,480,42.5C640,45,800,91,960,107.7C1120,125,1280,113,1440,102C1600,91,1760,79,1920,73.7C2080,68,2240,68,2400,65.2C2560,62,2720,57,2880,70.8C3040,85,3200,119,3360,119C3520,119,3680,85,3840,65.2C4000,45,4160,40,4320,45.3C4480,51,4640,68,4800,70.8C4960,74,5120,62,5280,62.3C5440,62,5600,74,5760,87.8C5920,102,6080,119,6240,110.5C6400,102,6560,68,6720,59.5C6880,51,7040,68,7200,82.2C7360,96,7520,108,7680,116.2C7840,125,8000,130,8160,113.3C8320,96,8480,57,8640,56.7C8800,57,8960,96,9120,119C9280,142,9440,147,9600,133.2C9760,119,9920,85,10080,68C10240,51,10400,51,10560,45.3C10720,40,10880,28,11040,31.2C11200,34,11360,51,11440,59.5L11520,68L11520,170L11440,170C11360,170,11200,170,11040,170C10880,170,10720,170,10560,170C10400,170,10240,170,10080,170C9920,170,9760,170,9600,170C9440,170,9280,170,9120,170C8960,170,8800,170,8640,170C8480,170,8320,170,8160,170C8000,170,7840,170,7680,170C7520,170,7360,170,7200,170C7040,170,6880,170,6720,170C6560,170,6400,170,6240,170C6080,170,5920,170,5760,170C5600,170,5440,170,5280,170C5120,170,4960,170,4800,170C4640,170,4480,170,4320,170C4160,170,4000,170,3840,170C3680,170,3520,170,3360,170C3200,170,3040,170,2880,170C2720,170,2560,170,2400,170C2240,170,2080,170,1920,170C1760,170,1600,170,1440,170C1280,170,1120,170,960,170C800,170,640,170,480,170C320,170,160,170,80,170L0,170Z"/></svg>