<?xml version="1.0" standalone="no"?>
<svg xmlns:xlink="http://www.w3.org/1999/xlink" id="wave" style="transform:rotate(0deg); transition: 0.3s" viewBox="0 0 1440 240" version="1.1" xmlns="http://www.w3.org/2000/svg"><defs><linearGradient id="sw-gradient-0" x1="0" x2="0" y1="1" y2="0"><stop stop-color="rgba(15, 15, 15, 1)" offset="0%"/><stop stop-color="rgba(15, 15, 15, 1)" offset="100%"/></linearGradient></defs><path style="transform:translate(0, 0px); opacity:1" fill="url(#sw-gradient-0)" d="M0,72L120,92C240,112,480,152,720,152C960,152,1200,112,1440,116C1680,120,1920,168,2160,156C2400,144,2640,72,2880,48C3120,24,3360,48,3600,76C3840,104,4080,136,4320,148C4560,160,4800,152,5040,144C5280,136,5520,128,5760,124C6000,120,6240,120,6480,104C6720,88,6960,56,7200,40C7440,24,7680,24,7920,44C8160,64,8400,104,8640,116C8880,128,9120,112,9360,92C9600,72,9840,48,10080,52C10320,56,10560,88,10800,84C11040,80,11280,40,11520,32C11760,24,12000,48,12240,64C12480,80,12720,88,12960,80C13200,72,13440,48,13680,44C13920,40,14160,56,14400,88C14640,120,14880,168,15120,176C15360,184,15600,152,15840,120C16080,88,16320,56,16560,44C16800,32,17040,40,17160,44L17280,48L17280,240L17160,240C17040,240,16800,240,16560,240C16320,240,16080,240,15840,240C15600,240,15360,240,15120,240C14880,240,14640,240,14400,240C14160,240,13920,240,13680,240C13440,240,13200,240,12960,240C12720,240,12480,240,12240,240C12000,240,11760,240,11520,240C11280,240,11040,240,10800,240C10560,240,10320,240,10080,240C9840,240,9600,240,9360,240C9120,240,8880,240,8640,240C8400,240,8160,240,7920,240C7680,240,7440,240,7200,240C6960,240,6720,240,6480,240C6240,240,6000,240,5760,240C5520,240,5280,240,5040,240C4800,240,4560,240,4320,240C4080,240,3840,240,3600,240C3360,240,3120,240,2880,240C2640,240,2400,240,2160,240C1920,240,1680,240,1440,240C1200,240,960,240,720,240C480,240,240,240,120,240L0,240Z"/></svg>